<svg width="294" height="50" viewBox="0 0 294 50" fill="none" xmlns="http://www.w3.org/2000/svg">
<path d="M110.638 7.2929H111.491L112.183 21.3624L111.384 21.469C110.709 19.9413 110.265 18.982 110.052 18.5912C109.874 18.1648 109.519 17.4365 108.986 16.4061C106.179 11.0767 102.733 8.41207 98.6468 8.41207C95.1649 8.41207 92.3404 10.2773 90.1731 14.0079C88.0058 17.7029 86.9222 22.5526 86.9222 28.5571C86.9222 33.5667 87.8814 37.6525 89.8 40.8146C91.7186 43.9767 94.2056 45.5577 97.2611 45.5577C101.56 45.5577 103.71 42.6799 103.71 36.9242C103.71 35.9649 103.656 35.2365 103.55 34.7391C103.443 34.2062 103.194 33.62 102.804 32.9804C102.413 32.3409 101.969 31.8968 101.471 31.6481C100.974 31.3639 100.246 31.2217 99.2863 31.2217V30.3158H116.926L116.82 31.1685C115.399 31.4527 114.422 31.9856 113.889 32.7673C113.143 33.8331 112.77 35.6274 112.77 38.1499V40.6547V45.0781L112.077 45.1847C111.686 44.332 111.029 43.9056 110.105 43.9056C109.679 43.9056 109.27 43.9767 108.879 44.1188C108.488 44.2254 107.6 44.5629 106.214 45.1314C104.864 45.6643 103.372 46.0907 101.738 46.4104C100.103 46.7302 98.5579 46.8901 97.1013 46.8901C91.1679 46.8901 86.2649 45.007 82.3922 41.241C78.5195 37.4749 76.5832 32.6784 76.5832 26.8517C76.5832 21.2025 78.4129 16.4949 82.0724 12.7289C85.7319 8.96277 90.333 7.07972 95.8755 7.07972C97.9007 7.07972 100.281 7.39949 103.017 8.03901L106.055 8.78512L107.547 8.9983C109.146 8.9983 110.176 8.42983 110.638 7.2929ZM114.373 22.1085L126.311 20.9894H126.684V38.5763C126.684 39.7843 126.702 40.6903 126.737 41.2942C126.773 41.8982 126.844 42.3957 126.95 42.7865C127.448 44.2787 128.514 45.0248 130.148 45.0248C130.965 45.0248 131.676 44.7761 132.28 44.2787C132.919 43.7458 133.346 43.1773 133.559 42.5733C133.807 41.9338 133.932 40.8146 133.932 39.2158L134.092 35.6984V29.8894L133.985 27.278C133.985 25.6792 133.683 24.5423 133.079 23.8672C132.972 23.7251 132.813 23.583 132.599 23.4409C132.386 23.2988 132.173 23.1744 131.96 23.0678L130.414 22.8014L130.361 22.1085L142.192 20.9894H142.565V40.2284C142.565 42.2535 142.796 43.5859 143.258 44.2254C143.756 44.8294 144.786 45.1314 146.349 45.1314V45.9308L134.678 46.7835V43.7991L133.186 45.0248C131.445 46.3394 129.153 46.9967 126.311 46.9967C123.646 46.9967 121.568 46.4104 120.075 45.238C119.329 44.705 118.832 44.03 118.583 43.2128C118.334 42.3957 118.21 41.0455 118.21 39.1625V29.8894L118.104 27.278C118.104 26.07 118.015 25.2529 117.837 24.8265C117.659 24.3646 117.286 23.9205 116.718 23.4942C116.327 23.2099 116.007 23.0323 115.759 22.9612C115.545 22.8546 115.101 22.8014 114.426 22.8014L114.373 22.1085ZM144.389 46.3571V45.6643C145.312 45.5222 145.952 45.3623 146.307 45.1847C146.662 45.007 147.018 44.6873 147.373 44.2254C147.764 43.728 148.03 43.1595 148.172 42.52C148.315 41.8805 148.386 40.939 148.386 39.6954V15.8199L148.279 13.2085C148.279 11.965 148.19 11.1123 148.013 10.6504C147.835 10.1885 147.462 9.76217 146.893 9.37135C146.325 8.945 145.561 8.73183 144.602 8.73183V7.98572L156.166 6.4402H156.859V39.7487C156.859 41.7739 157.126 43.2128 157.659 44.0655C158.227 44.8827 159.24 45.4156 160.696 45.6643V46.3571H144.389ZM158.742 46.3571V45.6643C159.666 45.5222 160.306 45.3623 160.661 45.1847C161.016 45.007 161.372 44.6873 161.727 44.2254C162.118 43.728 162.384 43.1595 162.526 42.52C162.668 41.8805 162.739 40.939 162.739 39.6954V15.8199L162.633 13.2085C162.633 11.965 162.544 11.1123 162.366 10.6504C162.189 10.1885 161.816 9.76217 161.247 9.37135C160.679 8.945 159.915 8.73183 158.956 8.73183V7.98572L170.52 6.4402H171.213V39.7487C171.213 41.7739 171.48 43.2128 172.013 44.0655C172.581 44.8827 173.594 45.4156 175.05 45.6643V46.3571H158.742ZM170.911 22.5882V21.7355H186.58V22.5882C185.585 22.7658 184.945 22.979 184.661 23.2277C184.093 23.6541 183.808 24.258 183.808 25.0397C183.808 25.7147 184.181 26.8872 184.928 28.5571L188.871 37.2439L192.655 28.5571C193.33 27.0648 193.668 25.9457 193.668 25.1996C193.668 24.3469 193.295 23.6896 192.549 23.2277C192.193 23.0145 191.376 22.8191 190.097 22.6415V21.7355H198.731V22.4816C198.091 22.6948 197.647 22.8902 197.398 23.0678C197.185 23.2099 196.848 23.5475 196.386 24.0804C195.959 24.5778 195.586 25.1107 195.266 25.6792C194.947 26.2477 194.52 27.1892 193.987 28.5038L186.207 46.0907C186.029 46.4815 185.869 46.748 185.727 46.8901C185.62 47.0677 185.372 47.1566 184.981 47.1566C184.448 47.1566 184.039 46.8368 183.755 46.1973L175.814 28.7169C174.891 26.5497 174.038 25.0575 173.256 24.2403C172.617 23.4942 171.835 22.9435 170.911 22.5882ZM194.584 46.3571V45.6643C195.472 45.5933 196.13 45.4689 196.556 45.2913C197.018 45.0781 197.426 44.7228 197.782 44.2254C198.137 43.728 198.35 43.3372 198.421 43.0529C198.492 42.7332 198.563 42.2358 198.634 41.5607C198.705 40.8501 198.741 40.2461 198.741 39.7487V29.8894L198.688 27.278C198.688 26.07 198.599 25.2351 198.421 24.7732C198.244 24.3113 197.924 23.9205 197.462 23.6008C197 23.2455 196.609 23.0323 196.289 22.9612C195.97 22.8546 195.455 22.8014 194.744 22.8014L194.691 22.1085L206.842 20.9894H207.215V39.7487C207.215 41.1344 207.268 42.0937 207.375 42.6266C207.481 43.124 207.748 43.6392 208.174 44.1721C208.458 44.5985 208.813 44.9182 209.24 45.1314C209.666 45.3446 210.288 45.5222 211.105 45.6643V46.3571H194.584ZM197.888 11.7696C197.888 10.3484 198.332 9.15818 199.221 8.19889C200.144 7.20408 201.264 6.70667 202.578 6.70667C203.964 6.70667 205.136 7.18631 206.096 8.1456C207.055 9.10488 207.534 10.3129 207.534 11.7696C207.534 13.1197 207.055 14.2744 206.096 15.2337C205.136 16.1929 203.964 16.6726 202.578 16.6726C201.299 16.6726 200.198 16.1929 199.274 15.2337C198.35 14.2744 197.888 13.1197 197.888 11.7696ZM236.377 31.4882H219.589L219.536 33.3535C219.536 36.9419 220.229 39.7132 221.614 41.6673C223 43.5859 224.972 44.5452 227.53 44.5452C229.484 44.5452 231.065 43.9945 232.273 42.8931C233.517 41.7917 234.44 40.0685 235.044 37.7236L235.95 37.8835C235.169 41.0455 233.819 43.3727 231.9 44.8649C230.017 46.3216 227.388 47.05 224.013 47.05C219.785 47.05 216.498 45.9308 214.153 43.6925C211.808 41.4541 210.636 38.3276 210.636 34.3128C210.636 30.298 211.879 27.0648 214.366 24.6133C216.853 22.1618 220.193 20.9361 224.386 20.9361C228.471 20.9361 231.634 22.1441 233.872 24.56C234.689 25.4483 235.258 26.372 235.577 27.3313C235.933 28.2906 236.199 29.6762 236.377 31.4882ZM220.815 24.56C220.389 25.5549 220.087 26.4076 219.909 27.1181C219.767 27.8287 219.696 28.8946 219.696 30.3158H225.931H227.21C227.601 30.3158 227.85 30.1736 227.956 29.8894C228.098 29.6052 228.169 29.0722 228.169 28.2906C228.169 26.301 227.832 24.7555 227.157 23.6541C226.482 22.5526 225.54 22.0019 224.332 22.0019C222.805 22.0019 221.632 22.8546 220.815 24.56ZM232.45 22.4283V21.7355H248.065V22.4816C246.999 22.6948 246.306 22.9079 245.987 23.1211C245.418 23.5475 245.134 24.1515 245.134 24.9331C245.134 25.5016 245.241 26.0878 245.454 26.6918C245.809 27.4379 246.075 28.0241 246.253 28.4505L249.344 35.5918L254.94 21.4157H255.846L262.081 36.1781L265.066 28.3972C265.599 26.976 265.865 25.9279 265.865 25.2529C265.865 24.862 265.705 24.4002 265.386 23.8672C265.066 23.4409 264.675 23.1389 264.213 22.9612C263.787 22.7836 263.005 22.6059 261.868 22.4283V21.7355H271.301V22.4283C270.626 22.6059 270.146 22.7836 269.862 22.9612C269.578 23.1033 269.187 23.4409 268.69 23.9738C268.228 24.4712 267.837 25.0219 267.517 25.6259C267.198 26.1944 266.807 27.1181 266.345 28.3972L259.577 45.7709L259.203 46.517C259.097 46.7657 258.866 46.8901 258.511 46.8901C258.297 46.8901 258.138 46.819 258.031 46.6769C257.924 46.5703 257.765 46.2683 257.551 45.7709L251.689 32.8206L246.786 45.3979L246.306 46.4104C246.164 46.7302 245.951 46.8901 245.667 46.8901C245.454 46.8901 245.258 46.7835 245.081 46.5703C244.939 46.3927 244.743 46.0196 244.494 45.4512L237.3 28.3972C236.731 27.0471 236.305 26.1233 236.021 25.6259C235.736 25.093 235.346 24.5067 234.848 23.8672C234.457 23.4764 234.102 23.1744 233.782 22.9612C233.427 22.7481 232.983 22.5704 232.45 22.4283Z" fill="black"/>
<rect width="1.435" height="8.99244" transform="matrix(-0.999866 0.0163535 0.0163535 0.999866 43.8345 37.9316)" fill="black"/>
<rect width="1.41986" height="5.50082" rx="0.70993" transform="matrix(-0.0163535 -0.999866 -0.999866 0.0163535 51.8728 46.7938)" fill="black"/>
<rect x="-0.225005" y="-0.217763" width="2.21414" height="8.41372" rx="1.10707" transform="matrix(-0.0163535 -0.999866 -0.999866 0.0163535 62.6835 12.0682)" fill="black" stroke="black" stroke-width="0.442827"/>
<rect width="1.41986" height="5.50082" transform="matrix(-0.0163535 -0.999866 -0.999866 0.0163535 48.5251 46.8485)" fill="black"/>
<rect width="1.435" height="8.99244" transform="matrix(-0.999866 0.0163535 0.0163535 0.999866 47.4138 37.3997)" fill="black"/>
<path fill-rule="evenodd" clip-rule="evenodd" d="M51.6198 2.06637C48.5822 2.11605 46.1596 4.59282 46.2087 7.59839L46.3039 13.4157C46.9665 14.5961 47.4644 15.8613 47.7808 17.1746C48.2213 19.0032 48.3012 20.8894 48.016 22.7253C47.7308 24.5613 47.086 26.3111 46.1185 27.8748C45.151 29.4386 43.8798 30.7857 42.3773 31.8392C40.8749 32.8927 39.1706 33.632 37.3619 34.0148C36.008 34.3014 34.6154 34.3841 33.2291 34.2624C33.4869 34.5054 33.7547 34.7395 34.0319 34.9643C36.8697 37.2644 40.4904 38.4014 44.1501 38.1416C47.8098 37.8817 51.2303 36.2447 53.7088 33.5671C56.0793 31.006 57.4158 27.6789 57.4757 24.218L57.4836 24.2179L57.2089 7.41848C57.1597 4.41291 54.6574 2.01669 51.6198 2.06637Z" fill="black"/>
<path d="M45.1201 15.1256C45.8777 16.4849 46.3572 17.9792 46.5309 19.5233C46.7046 21.0674 46.5693 22.6309 46.1326 24.1247C45.6959 25.6185 44.9665 27.0132 43.9859 28.2293C43.0052 29.4454 41.7927 30.4589 40.4174 31.2121C39.0422 31.9654 37.5312 32.4435 35.9706 32.6192C34.4101 32.7949 32.8307 32.6647 31.3224 32.2361C29.8142 31.8076 28.4068 31.089 27.1805 30.1214C25.9541 29.1538 24.933 27.9561 24.1753 26.5968L34.6477 20.8612L45.1201 15.1256Z" fill="black"/>
</svg>
