<svg width="310" height="79" viewBox="0 0 310 79" fill="none" xmlns="http://www.w3.org/2000/svg">
<rect width="309.73" height="79" fill="black"/>
<path d="M115.987 21.7135H116.84L117.533 35.783L116.733 35.8896C116.058 34.3619 115.614 33.4026 115.401 33.0118C115.223 32.5854 114.868 31.8571 114.335 30.8267C111.528 25.4974 108.082 22.8327 103.996 22.8327C100.514 22.8327 97.6897 24.698 95.5224 28.4285C93.3552 32.1235 92.2715 36.9733 92.2715 42.9777C92.2715 47.9873 93.2308 52.0731 95.1494 55.2352C97.068 58.3973 99.555 59.9784 102.61 59.9784C106.91 59.9784 109.059 57.1005 109.059 51.3448C109.059 50.3855 109.006 49.6572 108.899 49.1598C108.793 48.6268 108.544 48.0406 108.153 47.4011C107.762 46.7615 107.318 46.3174 106.821 46.0687C106.323 45.7845 105.595 45.6424 104.636 45.6424V44.7364H122.276L122.169 45.5891C120.748 45.8733 119.771 46.4062 119.238 47.1879C118.492 48.2538 118.119 50.048 118.119 52.5705V55.0753V59.4987L117.426 59.6053C117.035 58.7526 116.378 58.3263 115.454 58.3263C115.028 58.3263 114.619 58.3973 114.229 58.5394C113.838 58.646 112.949 58.9836 111.564 59.552C110.214 60.085 108.722 60.5113 107.087 60.8311C105.453 61.1508 103.907 61.3107 102.451 61.3107C96.5173 61.3107 91.6142 59.4277 87.7416 55.6616C83.8689 51.8955 81.9326 47.0991 81.9326 41.2723C81.9326 35.6232 83.7623 30.9156 87.4218 27.1495C91.0813 23.3834 95.6823 21.5003 101.225 21.5003C103.25 21.5003 105.63 21.8201 108.366 22.4596L111.404 23.2057L112.896 23.4189C114.495 23.4189 115.525 22.8505 115.987 21.7135ZM119.722 36.5292L131.66 35.41H132.033V52.9969C132.033 54.2049 132.051 55.1109 132.086 55.7149C132.122 56.3189 132.193 56.8163 132.3 57.2071C132.797 58.6993 133.863 59.4454 135.497 59.4454C136.314 59.4454 137.025 59.1967 137.629 58.6993C138.269 58.1664 138.695 57.5979 138.908 56.9939C139.157 56.3544 139.281 55.2352 139.281 53.6364L139.441 50.119V44.31L139.334 41.6986C139.334 40.0998 139.032 38.9629 138.428 38.2878C138.322 38.1457 138.162 38.0036 137.949 37.8615C137.736 37.7194 137.522 37.595 137.309 37.4884L135.764 37.222L135.71 36.5292L147.542 35.41H147.915V54.649C147.915 56.6742 148.146 58.0065 148.607 58.646C149.105 59.25 150.135 59.552 151.699 59.552V60.3514L140.027 61.2041V58.2197L138.535 59.4454C136.794 60.76 134.502 61.4173 131.66 61.4173C128.995 61.4173 126.917 60.8311 125.425 59.6586C124.679 59.1257 124.181 58.4506 123.933 57.6334C123.684 56.8163 123.559 55.4662 123.559 53.5831V44.31L123.453 41.6986C123.453 40.4907 123.364 39.6735 123.186 39.2471C123.009 38.7853 122.636 38.3411 122.067 37.9148C121.676 37.6306 121.357 37.4529 121.108 37.3819C120.895 37.2753 120.451 37.222 119.776 37.222L119.722 36.5292ZM149.738 60.7778V60.085C150.662 59.9428 151.301 59.783 151.656 59.6053C152.012 59.4277 152.367 59.1079 152.722 58.646C153.113 58.1486 153.38 57.5802 153.522 56.9406C153.664 56.3011 153.735 55.3596 153.735 54.1161V30.2405L153.628 27.6291C153.628 26.3856 153.54 25.5329 153.362 25.071C153.184 24.6091 152.811 24.1828 152.243 23.792C151.674 23.3656 150.91 23.1525 149.951 23.1525V22.4063L161.516 20.8608H162.209V54.1694C162.209 56.1945 162.475 57.6334 163.008 58.4861C163.576 59.3033 164.589 59.8362 166.046 60.085V60.7778H149.738ZM164.092 60.7778V60.085C165.016 59.9428 165.655 59.783 166.01 59.6053C166.366 59.4277 166.721 59.1079 167.076 58.646C167.467 58.1486 167.734 57.5802 167.876 56.9406C168.018 56.3011 168.089 55.3596 168.089 54.1161V30.2405L167.982 27.6291C167.982 26.3856 167.893 25.5329 167.716 25.071C167.538 24.6091 167.165 24.1828 166.597 23.792C166.028 23.3656 165.264 23.1525 164.305 23.1525V22.4063L175.87 20.8608H176.563V54.1694C176.563 56.1945 176.829 57.6334 177.362 58.4861C177.93 59.3033 178.943 59.8362 180.4 60.085V60.7778H164.092ZM176.261 37.0088V36.1561H191.929V37.0088C190.934 37.1864 190.295 37.3996 190.01 37.6483C189.442 38.0747 189.158 38.6787 189.158 39.4603C189.158 40.1354 189.531 41.3078 190.277 42.9777L194.221 51.6646L198.004 42.9777C198.68 41.4855 199.017 40.3663 199.017 39.6202C199.017 38.7675 198.644 38.1102 197.898 37.6483C197.543 37.4352 196.725 37.2397 195.446 37.0621V36.1561H204.08V36.9022C203.44 37.1154 202.996 37.3108 202.748 37.4884C202.534 37.6306 202.197 37.9681 201.735 38.501C201.309 38.9984 200.936 39.5314 200.616 40.0998C200.296 40.6683 199.87 41.6098 199.337 42.9244L191.556 60.5113C191.378 60.9021 191.218 61.1686 191.076 61.3107C190.97 61.4884 190.721 61.5772 190.33 61.5772C189.797 61.5772 189.389 61.2574 189.104 60.6179L181.164 43.1376C180.24 40.9703 179.387 39.4781 178.606 38.6609C177.966 37.9148 177.184 37.3641 176.261 37.0088ZM199.933 60.7778V60.085C200.822 60.0139 201.479 59.8895 201.905 59.7119C202.367 59.4987 202.776 59.1434 203.131 58.646C203.486 58.1486 203.7 57.7578 203.771 57.4736C203.842 57.1538 203.913 56.6564 203.984 55.9813C204.055 55.2708 204.09 54.6668 204.09 54.1694V44.31L204.037 41.6986C204.037 40.4907 203.948 39.6557 203.771 39.1938C203.593 38.732 203.273 38.3411 202.811 38.0214C202.349 37.6661 201.959 37.4529 201.639 37.3819C201.319 37.2753 200.804 37.222 200.093 37.222L200.04 36.5292L212.191 35.41H212.564V54.1694C212.564 55.555 212.617 56.5143 212.724 57.0472C212.831 57.5446 213.097 58.0598 213.523 58.5927C213.808 59.0191 214.163 59.3388 214.589 59.552C215.016 59.7652 215.637 59.9428 216.454 60.085V60.7778H199.933ZM203.238 26.1902C203.238 24.769 203.682 23.5788 204.57 22.6195C205.494 21.6247 206.613 21.1273 207.927 21.1273C209.313 21.1273 210.486 21.6069 211.445 22.5662C212.404 23.5255 212.884 24.7335 212.884 26.1902C212.884 27.5403 212.404 28.695 211.445 29.6543C210.486 30.6136 209.313 31.0932 207.927 31.0932C206.648 31.0932 205.547 30.6136 204.623 29.6543C203.7 28.695 203.238 27.5403 203.238 26.1902ZM241.726 45.9088H224.939L224.885 47.7741C224.885 51.3626 225.578 54.1338 226.964 56.0879C228.349 58.0065 230.321 58.9658 232.879 58.9658C234.833 58.9658 236.414 58.4151 237.622 57.3137C238.866 56.2123 239.79 54.4891 240.394 52.1442L241.3 52.3041C240.518 55.4662 239.168 57.7933 237.249 59.2855C235.366 60.7422 232.737 61.4706 229.362 61.4706C225.134 61.4706 221.848 60.3514 219.503 58.1131C217.158 55.8748 215.985 52.7482 215.985 48.7334C215.985 44.7186 217.229 41.4855 219.716 39.034C222.203 36.5825 225.543 35.3567 229.735 35.3567C233.821 35.3567 236.983 36.5647 239.221 38.9807C240.038 39.8689 240.607 40.7927 240.927 41.7519C241.282 42.7112 241.548 44.0969 241.726 45.9088ZM226.164 38.9807C225.738 39.9755 225.436 40.8282 225.258 41.5388C225.116 42.2493 225.045 43.3152 225.045 44.7364H231.281H232.56C232.95 44.7364 233.199 44.5943 233.306 44.31C233.448 44.0258 233.519 43.4929 233.519 42.7112C233.519 40.7216 233.181 39.1761 232.506 38.0747C231.831 36.9733 230.89 36.4226 229.682 36.4226C228.154 36.4226 226.982 37.2753 226.164 38.9807ZM237.799 36.8489V36.1561H253.414V36.9022C252.349 37.1154 251.656 37.3286 251.336 37.5417C250.768 37.9681 250.483 38.5721 250.483 39.3537C250.483 39.9222 250.59 40.5084 250.803 41.1124C251.158 41.8585 251.425 42.4448 251.602 42.8711L254.693 50.0125L260.289 35.8363H261.195L267.431 50.5987L270.415 42.8178C270.948 41.3966 271.215 40.3485 271.215 39.6735C271.215 39.2827 271.055 38.8208 270.735 38.2878C270.415 37.8615 270.024 37.5595 269.562 37.3819C269.136 37.2042 268.354 37.0266 267.218 36.8489V36.1561H276.65V36.8489C275.975 37.0266 275.496 37.2042 275.212 37.3819C274.927 37.524 274.537 37.8615 274.039 38.3944C273.577 38.8918 273.186 39.4425 272.867 40.0465C272.547 40.615 272.156 41.5388 271.694 42.8178L264.926 60.1915L264.553 60.9377C264.446 61.1864 264.215 61.3107 263.86 61.3107C263.647 61.3107 263.487 61.2396 263.38 61.0975C263.274 60.9909 263.114 60.6889 262.901 60.1915L257.038 47.2412L252.135 59.8185L251.656 60.8311C251.514 61.1508 251.3 61.3107 251.016 61.3107C250.803 61.3107 250.608 61.2041 250.43 60.9909C250.288 60.8133 250.092 60.4402 249.844 59.8718L242.649 42.8178C242.081 41.4677 241.654 40.5439 241.37 40.0465C241.086 39.5136 240.695 38.9274 240.198 38.2878C239.807 37.897 239.452 37.595 239.132 37.3819C238.776 37.1687 238.332 36.991 237.799 36.8489Z" fill="white"/>
<rect width="1.435" height="8.99244" transform="matrix(-0.999866 0.0163535 0.0163535 0.999866 49.1838 52.3522)" fill="white"/>
<rect width="1.41986" height="5.50082" rx="0.70993" transform="matrix(-0.0163535 -0.999866 -0.999866 0.0163535 57.2222 61.2144)" fill="white"/>
<rect x="-0.225005" y="-0.217763" width="2.21414" height="8.41372" rx="1.10707" transform="matrix(-0.0163535 -0.999866 -0.999866 0.0163535 68.0328 26.4888)" fill="white" stroke="white" stroke-width="0.442827"/>
<rect width="1.41986" height="5.50082" transform="matrix(-0.0163535 -0.999866 -0.999866 0.0163535 53.8745 61.2692)" fill="white"/>
<rect width="1.435" height="8.99244" transform="matrix(-0.999866 0.0163535 0.0163535 0.999866 52.7632 51.8203)" fill="white"/>
<path fill-rule="evenodd" clip-rule="evenodd" d="M56.9692 16.487C53.9315 16.5367 51.5089 19.0134 51.5581 22.019L51.6532 27.8363C52.3159 29.0167 52.8138 30.2819 53.1301 31.5952C53.5706 33.4238 53.6505 35.31 53.3653 37.1459C53.0801 38.9819 52.4354 40.7317 51.4679 42.2955C50.5004 43.8592 49.2291 45.2063 47.7267 46.2598C46.2242 47.3133 44.52 48.0526 42.7113 48.4355C41.3574 48.7221 39.9648 48.8047 38.5785 48.683C38.8363 48.926 39.104 49.1602 39.3813 49.3849C42.219 51.6851 45.8398 52.822 49.4995 52.5622C53.1591 52.3023 56.5797 50.6653 59.0581 47.9877C61.4287 45.4266 62.7651 42.0996 62.825 38.6387L62.833 38.6385L62.5582 21.8391C62.5091 18.8335 60.0068 16.4373 56.9692 16.487Z" fill="white"/>
<path d="M50.4694 29.5462C51.2271 30.9055 51.7065 32.3998 51.8803 33.9439C52.054 35.488 51.9187 37.0516 51.482 38.5453C51.0453 40.0391 50.3158 41.4338 49.3352 42.6499C48.3546 43.866 47.1421 44.8796 45.7668 45.6328C44.3916 46.386 42.8805 46.8641 41.32 47.0398C39.7595 47.2155 38.18 47.0853 36.6718 46.6568C35.1636 46.2282 33.7561 45.5096 32.5298 44.542C31.3035 43.5744 30.2824 42.3768 29.5247 41.0175L39.997 35.2818L50.4694 29.5462Z" fill="white"/>
</svg>
